<svg width="328" height="60" viewBox="0 0 328 60" fill="none" xmlns="http://www.w3.org/2000/svg">
<g filter="url(#filter0_b_197_2985)">
<rect width="328" height="60" rx="9" fill="white" fill-opacity="0.07"/>
<rect x="1" y="1" width="326" height="58" rx="8" stroke="url(#paint0_linear_197_2985)" stroke-width="2"/>
</g>
<path d="M106.829 36L112.757 22.7H115.797L121.744 36H118.514L113.65 24.258H114.866L109.983 36H106.829ZM109.793 33.15L110.61 30.813H117.45L118.286 33.15H109.793ZM128.957 36.152C128.096 36.152 127.342 35.962 126.696 35.582C126.05 35.202 125.543 34.6257 125.176 33.853C124.821 33.0677 124.644 32.0797 124.644 30.889C124.644 29.6857 124.815 28.6977 125.157 27.925C125.499 27.1523 125.993 26.576 126.639 26.196C127.285 25.816 128.058 25.626 128.957 25.626C129.92 25.626 130.781 25.8477 131.541 26.291C132.314 26.7217 132.922 27.3297 133.365 28.115C133.821 28.9003 134.049 29.825 134.049 30.889C134.049 31.9657 133.821 32.8967 133.365 33.682C132.922 34.4673 132.314 35.0753 131.541 35.506C130.781 35.9367 129.92 36.152 128.957 36.152ZM122.915 39.686V25.778H125.746V27.868L125.689 30.908L125.879 33.929V39.686H122.915ZM128.444 33.72C128.938 33.72 129.375 33.606 129.755 33.378C130.148 33.15 130.458 32.827 130.686 32.409C130.927 31.9783 131.047 31.4717 131.047 30.889C131.047 30.2937 130.927 29.787 130.686 29.369C130.458 28.951 130.148 28.628 129.755 28.4C129.375 28.172 128.938 28.058 128.444 28.058C127.95 28.058 127.507 28.172 127.114 28.4C126.721 28.628 126.411 28.951 126.183 29.369C125.955 29.787 125.841 30.2937 125.841 30.889C125.841 31.4717 125.955 31.9783 126.183 32.409C126.411 32.827 126.721 33.15 127.114 33.378C127.507 33.606 127.95 33.72 128.444 33.72ZM142.075 36.152C141.214 36.152 140.46 35.962 139.814 35.582C139.168 35.202 138.661 34.6257 138.294 33.853C137.939 33.0677 137.762 32.0797 137.762 30.889C137.762 29.6857 137.933 28.6977 138.275 27.925C138.617 27.1523 139.111 26.576 139.757 26.196C140.403 25.816 141.176 25.626 142.075 25.626C143.038 25.626 143.899 25.8477 144.659 26.291C145.432 26.7217 146.04 27.3297 146.483 28.115C146.939 28.9003 147.167 29.825 147.167 30.889C147.167 31.9657 146.939 32.8967 146.483 33.682C146.04 34.4673 145.432 35.0753 144.659 35.506C143.899 35.9367 143.038 36.152 142.075 36.152ZM136.033 39.686V25.778H138.864V27.868L138.807 30.908L138.997 33.929V39.686H136.033ZM141.562 33.72C142.056 33.72 142.493 33.606 142.873 33.378C143.266 33.15 143.576 32.827 143.804 32.409C144.045 31.9783 144.165 31.4717 144.165 30.889C144.165 30.2937 144.045 29.787 143.804 29.369C143.576 28.951 143.266 28.628 142.873 28.4C142.493 28.172 142.056 28.058 141.562 28.058C141.068 28.058 140.625 28.172 140.232 28.4C139.839 28.628 139.529 28.951 139.301 29.369C139.073 29.787 138.959 30.2937 138.959 30.889C138.959 31.4717 139.073 31.9783 139.301 32.409C139.529 32.827 139.839 33.15 140.232 33.378C140.625 33.606 141.068 33.72 141.562 33.72ZM149.151 36V21.902H152.115V36H149.151ZM156.158 39.838C155.626 39.838 155.1 39.7557 154.581 39.591C154.062 39.4263 153.637 39.1983 153.308 38.907L154.391 36.798C154.619 37.0007 154.879 37.159 155.17 37.273C155.474 37.387 155.772 37.444 156.063 37.444C156.481 37.444 156.81 37.3427 157.051 37.14C157.304 36.95 157.532 36.627 157.735 36.171L158.267 34.917L158.495 34.594L162.162 25.778H165.012L160.395 36.627C160.066 37.4503 159.686 38.0963 159.255 38.565C158.837 39.0337 158.368 39.363 157.849 39.553C157.342 39.743 156.779 39.838 156.158 39.838ZM157.906 36.399L153.346 25.778H156.405L159.939 34.328L157.906 36.399ZM171.811 36V22.7H174.357L182.204 32.276H180.969V22.7H184.009V36H181.482L173.616 26.424H174.851V36H171.811ZM191.811 36.152C190.722 36.152 189.753 35.924 188.904 35.468C188.068 35.012 187.403 34.3913 186.909 33.606C186.428 32.808 186.187 31.9023 186.187 30.889C186.187 29.863 186.428 28.9573 186.909 28.172C187.403 27.374 188.068 26.7533 188.904 26.31C189.753 25.854 190.722 25.626 191.811 25.626C192.888 25.626 193.85 25.854 194.699 26.31C195.548 26.7533 196.213 27.3677 196.694 28.153C197.175 28.9383 197.416 29.8503 197.416 30.889C197.416 31.9023 197.175 32.808 196.694 33.606C196.213 34.3913 195.548 35.012 194.699 35.468C193.85 35.924 192.888 36.152 191.811 36.152ZM191.811 33.72C192.305 33.72 192.748 33.606 193.141 33.378C193.534 33.15 193.844 32.827 194.072 32.409C194.3 31.9783 194.414 31.4717 194.414 30.889C194.414 30.2937 194.3 29.787 194.072 29.369C193.844 28.951 193.534 28.628 193.141 28.4C192.748 28.172 192.305 28.058 191.811 28.058C191.317 28.058 190.874 28.172 190.481 28.4C190.088 28.628 189.772 28.951 189.531 29.369C189.303 29.787 189.189 30.2937 189.189 30.889C189.189 31.4717 189.303 31.9783 189.531 32.409C189.772 32.827 190.088 33.15 190.481 33.378C190.874 33.606 191.317 33.72 191.811 33.72ZM201.456 36L197.77 25.778H200.563L203.622 34.575H202.292L205.484 25.778H207.992L211.089 34.575H209.759L212.913 25.778H215.535L211.83 36H208.961L206.244 28.457H207.118L204.306 36H201.456Z" fill="white"/>
<defs>
<filter id="filter0_b_197_2985" x="-4" y="-4" width="336" height="68" filterUnits="userSpaceOnUse" color-interpolation-filters="sRGB">
<feFlood flood-opacity="0" result="BackgroundImageFix"/>
<feGaussianBlur in="BackgroundImageFix" stdDeviation="2"/>
<feComposite in2="SourceAlpha" operator="in" result="effect1_backgroundBlur_197_2985"/>
<feBlend mode="normal" in="SourceGraphic" in2="effect1_backgroundBlur_197_2985" result="shape"/>
</filter>
<linearGradient id="paint0_linear_197_2985" x1="0" y1="30" x2="328" y2="30" gradientUnits="userSpaceOnUse">
<stop stop-color="#3740F9"/>
<stop offset="0.43393" stop-color="#FFF2AE"/>
<stop offset="1" stop-color="#E053A5"/>
</linearGradient>
</defs>
</svg>
