<svg width="1883" height="975" viewBox="0 0 1883 975" fill="none" xmlns="http://www.w3.org/2000/svg">
<mask id="mask0_388_3130" style="mask-type:alpha" maskUnits="userSpaceOnUse" x="0" y="0" width="1883" height="975">
<rect width="1883" height="975" fill="#D9D9D9"/>
</mask>
<g mask="url(#mask0_388_3130)">
<path fill-rule="evenodd" clip-rule="evenodd" d="M2344.03 490.813H-446C-283.846 209.525 279.261 2 949.013 2C1618.76 2 2181.87 209.525 2344.03 490.813Z" fill="#1D1D1D"/>
<rect width="1883.52" height="746.833" transform="matrix(-0.999999 -0.0014603 0.00148543 -0.999999 1882.32 935.969)" fill="#1D1D1D"/>
<mask id="path-4-inside-1_388_3130" fill="white">
<path fill-rule="evenodd" clip-rule="evenodd" d="M2344.03 527.446H-446C-283.846 244.643 279.261 36 949.013 36C1618.76 36 2181.87 244.643 2344.03 527.446Z"/>
</mask>
<path fill-rule="evenodd" clip-rule="evenodd" d="M2344.03 527.446H-446C-283.846 244.643 279.261 36 949.013 36C1618.76 36 2181.87 244.643 2344.03 527.446Z" fill="black"/>
<path d="M-446 527.446L-446.868 526.949L-447.726 528.446H-446V527.446ZM2344.03 527.446V528.446H2345.75L2344.89 526.949L2344.03 527.446ZM-446 528.446H2344.03V526.446H-446V528.446ZM-445.132 527.943C-364.231 386.849 -183.187 264.095 61.4939 176.613C306.135 89.1465 614.234 37 949.013 37V35C614.04 35 305.709 87.1749 60.8206 174.73C-184.028 262.271 -365.614 385.24 -446.868 526.949L-445.132 527.943ZM949.013 37C1283.79 37 1591.89 89.1465 1836.53 176.613C2081.21 264.095 2262.26 386.849 2343.16 527.943L2344.89 526.949C2263.64 385.24 2082.05 262.271 1837.2 174.73C1592.32 87.1749 1283.99 35 949.013 35V37Z" fill="black" mask="url(#path-4-inside-1_388_3130)"/>
<rect width="1883.52" height="750.855" transform="matrix(-0.999999 -0.00146817 0.00147747 -0.999999 1882.32 975)" fill="black"/>
</g>
</svg>
