<svg width="275" height="60" viewBox="0 0 275 60" fill="none" xmlns="http://www.w3.org/2000/svg">
<g filter="url(#filter0_b_53_684)">
<rect width="275" height="60" rx="17" fill="#D9D9D9" fill-opacity="0.26"/>
<rect x="1" y="1" width="273" height="58" rx="16" stroke="url(#paint0_linear_53_684)" stroke-width="2"/>
</g>
<path d="M79.999 37.228C78.9477 37.228 77.9787 37.0633 77.092 36.734C76.218 36.392 75.4517 35.9107 74.793 35.29C74.147 34.6693 73.6403 33.941 73.273 33.105C72.9183 32.269 72.741 31.3507 72.741 30.35C72.741 29.3493 72.9183 28.431 73.273 27.595C73.6403 26.759 74.1533 26.0307 74.812 25.41C75.4707 24.7893 76.2433 24.3143 77.13 23.985C78.0167 23.643 78.992 23.472 80.056 23.472C81.234 23.472 82.2917 23.6683 83.229 24.061C84.179 24.4537 84.977 25.0237 85.623 25.771L83.647 27.595C83.1657 27.0883 82.64 26.7147 82.07 26.474C81.5 26.2207 80.8793 26.094 80.208 26.094C79.562 26.094 78.973 26.1953 78.441 26.398C77.909 26.6007 77.4467 26.892 77.054 27.272C76.674 27.652 76.3763 28.1017 76.161 28.621C75.9583 29.1403 75.857 29.7167 75.857 30.35C75.857 30.9707 75.9583 31.5407 76.161 32.06C76.3763 32.5793 76.674 33.0353 77.054 33.428C77.4467 33.808 77.9027 34.0993 78.422 34.302C78.954 34.5047 79.5367 34.606 80.17 34.606C80.778 34.606 81.367 34.511 81.937 34.321C82.5197 34.1183 83.0833 33.7827 83.628 33.314L85.376 35.537C84.654 36.0817 83.8117 36.4997 82.849 36.791C81.899 37.0823 80.949 37.228 79.999 37.228ZM82.564 35.138V30.141H85.376V35.537L82.564 35.138ZM93.0992 37.152C91.9339 37.152 90.9079 36.924 90.0212 36.468C89.1472 36.012 88.4695 35.3913 87.9882 34.606C87.5069 33.808 87.2662 32.9023 87.2662 31.889C87.2662 30.863 87.5005 29.9573 87.9692 29.172C88.4505 28.374 89.1029 27.7533 89.9262 27.31C90.7495 26.854 91.6805 26.626 92.7192 26.626C93.7199 26.626 94.6192 26.8413 95.4172 27.272C96.2279 27.69 96.8675 28.298 97.3362 29.096C97.8049 29.8813 98.0392 30.825 98.0392 31.927C98.0392 32.041 98.0329 32.174 98.0202 32.326C98.0075 32.4653 97.9949 32.5983 97.9822 32.725H89.6792V30.996H96.4242L95.2842 31.509C95.2842 30.977 95.1765 30.5147 94.9612 30.122C94.7459 29.7293 94.4482 29.4253 94.0682 29.21C93.6882 28.982 93.2449 28.868 92.7382 28.868C92.2315 28.868 91.7819 28.982 91.3892 29.21C91.0092 29.4253 90.7115 29.7357 90.4962 30.141C90.2809 30.5337 90.1732 31.0023 90.1732 31.547V32.003C90.1732 32.5603 90.2935 33.0543 90.5342 33.485C90.7875 33.903 91.1359 34.226 91.5792 34.454C92.0352 34.6693 92.5672 34.777 93.1752 34.777C93.7199 34.777 94.1949 34.6947 94.6002 34.53C95.0182 34.3653 95.3982 34.1183 95.7402 33.789L97.3172 35.499C96.8485 36.031 96.2595 36.4427 95.5502 36.734C94.8409 37.0127 94.0239 37.152 93.0992 37.152ZM104.193 37.152C102.989 37.152 102.052 36.848 101.381 36.24C100.709 35.6193 100.374 34.701 100.374 33.485V24.517H103.338V33.447C103.338 33.8777 103.452 34.2133 103.68 34.454C103.908 34.682 104.218 34.796 104.611 34.796C105.079 34.796 105.478 34.6693 105.808 34.416L106.606 36.506C106.302 36.7213 105.934 36.886 105.504 37C105.086 37.1013 104.649 37.152 104.193 37.152ZM98.7965 29.286V27.006H105.884V29.286H98.7965ZM113.859 37V23.7H116.937V37H113.859ZM126.098 26.626C126.908 26.626 127.63 26.7907 128.264 27.12C128.91 27.4367 129.416 27.9307 129.784 28.602C130.151 29.2607 130.335 30.1093 130.335 31.148V37H127.371V31.604C127.371 30.7807 127.187 30.1727 126.82 29.78C126.465 29.3873 125.958 29.191 125.3 29.191C124.831 29.191 124.407 29.2923 124.027 29.495C123.659 29.685 123.368 29.9827 123.153 30.388C122.95 30.7933 122.849 31.3127 122.849 31.946V37H119.885V26.778H122.716V29.609L122.184 28.754C122.551 28.07 123.077 27.5443 123.761 27.177C124.445 26.8097 125.224 26.626 126.098 26.626ZM141.366 37V26.208H137.11V23.7H148.7V26.208H144.444V37H141.366ZM153.972 37.152C152.883 37.152 151.914 36.924 151.065 36.468C150.229 36.012 149.564 35.3913 149.07 34.606C148.589 33.808 148.348 32.9023 148.348 31.889C148.348 30.863 148.589 29.9573 149.07 29.172C149.564 28.374 150.229 27.7533 151.065 27.31C151.914 26.854 152.883 26.626 153.972 26.626C155.049 26.626 156.012 26.854 156.86 27.31C157.709 27.7533 158.374 28.3677 158.855 29.153C159.337 29.9383 159.577 30.8503 159.577 31.889C159.577 32.9023 159.337 33.808 158.855 34.606C158.374 35.3913 157.709 36.012 156.86 36.468C156.012 36.924 155.049 37.152 153.972 37.152ZM153.972 34.72C154.466 34.72 154.91 34.606 155.302 34.378C155.695 34.15 156.005 33.827 156.233 33.409C156.461 32.9783 156.575 32.4717 156.575 31.889C156.575 31.2937 156.461 30.787 156.233 30.369C156.005 29.951 155.695 29.628 155.302 29.4C154.91 29.172 154.466 29.058 153.972 29.058C153.478 29.058 153.035 29.172 152.642 29.4C152.25 29.628 151.933 29.951 151.692 30.369C151.464 30.787 151.35 31.2937 151.35 31.889C151.35 32.4717 151.464 32.9783 151.692 33.409C151.933 33.827 152.25 34.15 152.642 34.378C153.035 34.606 153.478 34.72 153.972 34.72ZM165.871 37.152C165.023 37.152 164.263 36.9873 163.591 36.658C162.933 36.3287 162.42 35.8283 162.052 35.157C161.685 34.473 161.501 33.6053 161.501 32.554V26.778H164.465V32.117C164.465 32.9657 164.643 33.5927 164.997 33.998C165.365 34.3907 165.878 34.587 166.536 34.587C166.992 34.587 167.398 34.492 167.752 34.302C168.107 34.0993 168.386 33.7953 168.588 33.39C168.791 32.972 168.892 32.4527 168.892 31.832V26.778H171.856V37H169.044V34.188L169.557 35.005C169.215 35.7143 168.709 36.2527 168.037 36.62C167.379 36.9747 166.657 37.152 165.871 37.152ZM179.542 37.152C178.44 37.152 177.459 36.9303 176.597 36.487C175.736 36.031 175.058 35.404 174.564 34.606C174.083 33.808 173.842 32.9023 173.842 31.889C173.842 30.863 174.083 29.9573 174.564 29.172C175.058 28.374 175.736 27.7533 176.597 27.31C177.459 26.854 178.44 26.626 179.542 26.626C180.619 26.626 181.556 26.854 182.354 27.31C183.152 27.7533 183.741 28.393 184.121 29.229L181.822 30.464C181.556 29.9827 181.221 29.628 180.815 29.4C180.423 29.172 179.992 29.058 179.523 29.058C179.017 29.058 178.561 29.172 178.155 29.4C177.75 29.628 177.427 29.951 177.186 30.369C176.958 30.787 176.844 31.2937 176.844 31.889C176.844 32.4843 176.958 32.991 177.186 33.409C177.427 33.827 177.75 34.15 178.155 34.378C178.561 34.606 179.017 34.72 179.523 34.72C179.992 34.72 180.423 34.6123 180.815 34.397C181.221 34.169 181.556 33.808 181.822 33.314L184.121 34.568C183.741 35.3913 183.152 36.031 182.354 36.487C181.556 36.9303 180.619 37.152 179.542 37.152ZM191.967 26.626C192.777 26.626 193.499 26.7907 194.133 27.12C194.779 27.4367 195.285 27.9307 195.653 28.602C196.02 29.2607 196.204 30.1093 196.204 31.148V37H193.24V31.604C193.24 30.7807 193.056 30.1727 192.689 29.78C192.334 29.3873 191.827 29.191 191.169 29.191C190.7 29.191 190.276 29.2923 189.896 29.495C189.528 29.685 189.237 29.9827 189.022 30.388C188.819 30.7933 188.718 31.3127 188.718 31.946V37H185.754V22.902H188.718V29.609L188.053 28.754C188.42 28.07 188.946 27.5443 189.63 27.177C190.314 26.8097 191.093 26.626 191.967 26.626Z" fill="white"/>
<defs>
<filter id="filter0_b_53_684" x="-4" y="-4" width="283" height="68" filterUnits="userSpaceOnUse" color-interpolation-filters="sRGB">
<feFlood flood-opacity="0" result="BackgroundImageFix"/>
<feGaussianBlur in="BackgroundImageFix" stdDeviation="2"/>
<feComposite in2="SourceAlpha" operator="in" result="effect1_backgroundBlur_53_684"/>
<feBlend mode="normal" in="SourceGraphic" in2="effect1_backgroundBlur_53_684" result="shape"/>
</filter>
<linearGradient id="paint0_linear_53_684" x1="0" y1="30" x2="275" y2="30" gradientUnits="userSpaceOnUse">
<stop stop-color="#3740F9"/>
<stop offset="0.43393" stop-color="#FFF2AE"/>
<stop offset="1" stop-color="#E053A5"/>
</linearGradient>
</defs>
</svg>
