<svg width="275" height="60" viewBox="0 0 275 60" fill="none" xmlns="http://www.w3.org/2000/svg">
<g filter="url(#filter0_b_121_264)">
<rect width="275" height="60" rx="17" fill="white" fill-opacity="0.07"/>
<rect x="1" y="1" width="273" height="58" rx="16" stroke="url(#paint0_linear_121_264)" stroke-width="2"/>
</g>
<path d="M77.829 37L83.757 23.7H86.797L92.744 37H89.514L84.65 25.258H85.866L80.983 37H77.829ZM80.793 34.15L81.61 31.813H88.45L89.286 34.15H80.793ZM99.9569 37.152C99.0955 37.152 98.3419 36.962 97.6959 36.582C97.0499 36.202 96.5432 35.6257 96.1759 34.853C95.8212 34.0677 95.6439 33.0797 95.6439 31.889C95.6439 30.6857 95.8149 29.6977 96.1569 28.925C96.4989 28.1523 96.9929 27.576 97.6389 27.196C98.2849 26.816 99.0575 26.626 99.9569 26.626C100.92 26.626 101.781 26.8477 102.541 27.291C103.314 27.7217 103.922 28.3297 104.365 29.115C104.821 29.9003 105.049 30.825 105.049 31.889C105.049 32.9657 104.821 33.8967 104.365 34.682C103.922 35.4673 103.314 36.0753 102.541 36.506C101.781 36.9367 100.92 37.152 99.9569 37.152ZM93.9149 40.686V26.778H96.7459V28.868L96.6889 31.908L96.8789 34.929V40.686H93.9149ZM99.4439 34.72C99.9379 34.72 100.375 34.606 100.755 34.378C101.148 34.15 101.458 33.827 101.686 33.409C101.927 32.9783 102.047 32.4717 102.047 31.889C102.047 31.2937 101.927 30.787 101.686 30.369C101.458 29.951 101.148 29.628 100.755 29.4C100.375 29.172 99.9379 29.058 99.4439 29.058C98.9499 29.058 98.5065 29.172 98.1139 29.4C97.7212 29.628 97.4109 29.951 97.1829 30.369C96.9549 30.787 96.8409 31.2937 96.8409 31.889C96.8409 32.4717 96.9549 32.9783 97.1829 33.409C97.4109 33.827 97.7212 34.15 98.1139 34.378C98.5065 34.606 98.9499 34.72 99.4439 34.72ZM113.075 37.152C112.214 37.152 111.46 36.962 110.814 36.582C110.168 36.202 109.661 35.6257 109.294 34.853C108.939 34.0677 108.762 33.0797 108.762 31.889C108.762 30.6857 108.933 29.6977 109.275 28.925C109.617 28.1523 110.111 27.576 110.757 27.196C111.403 26.816 112.176 26.626 113.075 26.626C114.038 26.626 114.899 26.8477 115.659 27.291C116.432 27.7217 117.04 28.3297 117.483 29.115C117.939 29.9003 118.167 30.825 118.167 31.889C118.167 32.9657 117.939 33.8967 117.483 34.682C117.04 35.4673 116.432 36.0753 115.659 36.506C114.899 36.9367 114.038 37.152 113.075 37.152ZM107.033 40.686V26.778H109.864V28.868L109.807 31.908L109.997 34.929V40.686H107.033ZM112.562 34.72C113.056 34.72 113.493 34.606 113.873 34.378C114.266 34.15 114.576 33.827 114.804 33.409C115.045 32.9783 115.165 32.4717 115.165 31.889C115.165 31.2937 115.045 30.787 114.804 30.369C114.576 29.951 114.266 29.628 113.873 29.4C113.493 29.172 113.056 29.058 112.562 29.058C112.068 29.058 111.625 29.172 111.232 29.4C110.839 29.628 110.529 29.951 110.301 30.369C110.073 30.787 109.959 31.2937 109.959 31.889C109.959 32.4717 110.073 32.9783 110.301 33.409C110.529 33.827 110.839 34.15 111.232 34.378C111.625 34.606 112.068 34.72 112.562 34.72ZM120.151 37V22.902H123.115V37H120.151ZM127.158 40.838C126.626 40.838 126.1 40.7557 125.581 40.591C125.062 40.4263 124.637 40.1983 124.308 39.907L125.391 37.798C125.619 38.0007 125.879 38.159 126.17 38.273C126.474 38.387 126.772 38.444 127.063 38.444C127.481 38.444 127.81 38.3427 128.051 38.14C128.304 37.95 128.532 37.627 128.735 37.171L129.267 35.917L129.495 35.594L133.162 26.778H136.012L131.395 37.627C131.066 38.4503 130.686 39.0963 130.255 39.565C129.837 40.0337 129.368 40.363 128.849 40.553C128.342 40.743 127.779 40.838 127.158 40.838ZM128.906 37.399L124.346 26.778H127.405L130.939 35.328L128.906 37.399ZM142.811 37V23.7H145.357L153.204 33.276H151.969V23.7H155.009V37H152.482L144.616 27.424H145.851V37H142.811ZM162.811 37.152C161.722 37.152 160.753 36.924 159.904 36.468C159.068 36.012 158.403 35.3913 157.909 34.606C157.428 33.808 157.187 32.9023 157.187 31.889C157.187 30.863 157.428 29.9573 157.909 29.172C158.403 28.374 159.068 27.7533 159.904 27.31C160.753 26.854 161.722 26.626 162.811 26.626C163.888 26.626 164.85 26.854 165.699 27.31C166.548 27.7533 167.213 28.3677 167.694 29.153C168.175 29.9383 168.416 30.8503 168.416 31.889C168.416 32.9023 168.175 33.808 167.694 34.606C167.213 35.3913 166.548 36.012 165.699 36.468C164.85 36.924 163.888 37.152 162.811 37.152ZM162.811 34.72C163.305 34.72 163.748 34.606 164.141 34.378C164.534 34.15 164.844 33.827 165.072 33.409C165.3 32.9783 165.414 32.4717 165.414 31.889C165.414 31.2937 165.3 30.787 165.072 30.369C164.844 29.951 164.534 29.628 164.141 29.4C163.748 29.172 163.305 29.058 162.811 29.058C162.317 29.058 161.874 29.172 161.481 29.4C161.088 29.628 160.772 29.951 160.531 30.369C160.303 30.787 160.189 31.2937 160.189 31.889C160.189 32.4717 160.303 32.9783 160.531 33.409C160.772 33.827 161.088 34.15 161.481 34.378C161.874 34.606 162.317 34.72 162.811 34.72ZM172.456 37L168.77 26.778H171.563L174.622 35.575H173.292L176.484 26.778H178.992L182.089 35.575H180.759L183.913 26.778H186.535L182.83 37H179.961L177.244 29.457H178.118L175.306 37H172.456Z" fill="white"/>
<defs>
<filter id="filter0_b_121_264" x="-4" y="-4" width="283" height="68" filterUnits="userSpaceOnUse" color-interpolation-filters="sRGB">
<feFlood flood-opacity="0" result="BackgroundImageFix"/>
<feGaussianBlur in="BackgroundImageFix" stdDeviation="2"/>
<feComposite in2="SourceAlpha" operator="in" result="effect1_backgroundBlur_121_264"/>
<feBlend mode="normal" in="SourceGraphic" in2="effect1_backgroundBlur_121_264" result="shape"/>
</filter>
<linearGradient id="paint0_linear_121_264" x1="0" y1="30" x2="275" y2="30" gradientUnits="userSpaceOnUse">
<stop stop-color="#3740F9"/>
<stop offset="0.43393" stop-color="#FFF2AE"/>
<stop offset="1" stop-color="#E053A5"/>
</linearGradient>
</defs>
</svg>
